<svg width="30" height="30" viewBox="0 0 30 30" fill="none" xmlns="http://www.w3.org/2000/svg">
<path d="M10.9015 5.71804C11.7487 3.23887 15.1742 3.16379 16.1786 5.49279L16.2636 5.71946L17.4068 9.06279C17.6688 9.82954 18.0922 10.5312 18.6484 11.1204C19.2046 11.7096 19.8808 12.1727 20.6312 12.4784L20.9386 12.5931L24.2819 13.735C26.7611 14.5821 26.8362 18.0076 24.5086 19.012L24.2819 19.097L20.9386 20.2403C20.1716 20.5021 19.4696 20.9254 18.8802 21.4817C18.2907 22.0379 17.8274 22.7141 17.5216 23.4646L17.4068 23.7706L16.265 27.1154C15.4178 29.5945 11.9923 29.6696 10.9893 27.342L10.9015 27.1154L9.75965 23.772C9.49783 23.005 9.07451 22.3031 8.51829 21.7136C7.96206 21.1242 7.28586 20.6609 6.53532 20.355L6.22932 20.2403L2.88599 19.0985C0.405404 18.2513 0.33032 14.8258 2.65932 13.8228L2.88599 13.735L6.22932 12.5931C6.99607 12.3311 7.69771 11.9077 8.28692 11.3515C8.87613 10.7953 9.3392 10.1192 9.64491 9.36879L9.75965 9.06279L10.9015 5.71804ZM13.5832 6.63321L12.4414 9.97654C12.0425 11.1457 11.3935 12.2139 10.5396 13.1067C9.68571 13.9994 8.6475 14.6954 7.49724 15.146L7.14307 15.2749L3.79974 16.4167L7.14307 17.5585C8.31225 17.9575 9.38042 18.6065 10.2732 19.4604C11.166 20.3142 11.8619 21.3524 12.3125 22.5027L12.4414 22.8569L13.5832 26.2002L14.7251 22.8569C15.124 21.6877 15.773 20.6195 16.6269 19.7268C17.4808 18.834 18.519 18.1381 19.6692 17.6875L20.0234 17.56L23.3667 16.4167L20.0234 15.2749C18.8542 14.8759 17.7861 14.2269 16.8933 13.373C16.0005 12.5192 15.3046 11.481 14.854 10.3307L14.7265 9.97654L13.5832 6.63321ZM24.9166 0.833374C25.1816 0.833374 25.4413 0.907718 25.6662 1.04796C25.8911 1.1882 26.0721 1.38871 26.1887 1.62671L26.2567 1.79246L26.7526 3.24596L28.2075 3.74179C28.4731 3.83203 28.7059 3.99908 28.8765 4.22178C29.047 4.44448 29.1476 4.7128 29.1655 4.99274C29.1835 5.27267 29.1178 5.55163 28.977 5.79424C28.8363 6.03685 28.6266 6.23221 28.3747 6.35554L28.2075 6.42354L26.754 6.91937L26.2582 8.37429C26.1678 8.63981 26.0006 8.87253 25.7778 9.04295C25.555 9.21336 25.2867 9.31381 25.0067 9.33156C24.7268 9.34931 24.4479 9.28357 24.2054 9.14266C23.9629 9.00175 23.7676 8.79202 23.6444 8.54004L23.5764 8.37429L23.0806 6.92079L21.6257 6.42496C21.3601 6.33472 21.1272 6.16767 20.9567 5.94497C20.7861 5.72227 20.6855 5.45395 20.6676 5.17401C20.6497 4.89407 20.7153 4.61512 20.8561 4.37251C20.9969 4.1299 21.2065 3.93454 21.4585 3.81121L21.6257 3.74321L23.0792 3.24737L23.575 1.79246C23.6705 1.51256 23.8512 1.26958 24.0918 1.09758C24.3324 0.925583 24.6208 0.833197 24.9166 0.833374Z" fill="#BCFF00"/>
</svg>
