<svg width="29" height="40" viewBox="0 0 29 40" fill="none" xmlns="http://www.w3.org/2000/svg">
<path d="M4.21875 23.9062C3.09987 23.9063 2.02681 24.3507 1.23564 25.1419C0.444474 25.9331 0 27.0061 0 28.125V29.1094C0 32.7797 1.6875 35.4375 4.37062 37.1053C6.97219 38.7225 10.4344 39.375 14.0625 39.375C17.7103 39.375 21.1725 38.7253 23.7712 37.1053C26.4544 35.4375 28.125 32.7741 28.125 29.1094V28.125C28.125 27.0061 27.6805 25.9331 26.8894 25.1419C26.0982 24.3507 25.0251 23.9063 23.9062 23.9062H4.21875Z" fill="url(#paint0_radial_118_336)"/>
<path d="M4.21875 23.9062C3.09987 23.9063 2.02681 24.3507 1.23564 25.1419C0.444474 25.9331 0 27.0061 0 28.125V29.1094C0 32.7797 1.6875 35.4375 4.37062 37.1053C6.97219 38.7225 10.4344 39.375 14.0625 39.375C17.7103 39.375 21.1725 38.7253 23.7712 37.1053C26.4544 35.4375 28.125 32.7741 28.125 29.1094V28.125C28.125 27.0061 27.6805 25.9331 26.8894 25.1419C26.0982 24.3507 25.0251 23.9063 23.9062 23.9062H4.21875Z" fill="#BCFF00"/>
<path d="M15.4688 1.40625C15.4688 1.03329 15.3206 0.675604 15.0569 0.411881C14.7931 0.148158 14.4355 0 14.0625 0C13.6895 0 13.3319 0.148158 13.0681 0.411881C12.8044 0.675604 12.6562 1.03329 12.6562 1.40625V4.21875H15.4688V1.40625Z" fill="url(#paint1_linear_118_336)"/>
<path d="M21.0938 2.8125C22.2126 2.8125 23.2857 3.25697 24.0769 4.04814C24.868 4.83931 25.3125 5.91237 25.3125 7.03125V15.4688C25.3125 16.5876 24.868 17.6607 24.0769 18.4519C23.2857 19.243 22.2126 19.6875 21.0938 19.6875H7.03125C5.91237 19.6875 4.83931 19.243 4.04814 18.4519C3.25697 17.6607 2.8125 16.5876 2.8125 15.4688V7.03125C2.8125 5.91237 3.25697 4.83931 4.04814 4.04814C4.83931 3.25697 5.91237 2.8125 7.03125 2.8125H21.0938Z" fill="#BCFF00"/>
<path d="M18.2812 9.14062C17.7218 9.14063 17.1853 9.36286 16.7897 9.75845C16.3941 10.154 16.1719 10.6906 16.1719 11.25C16.1719 11.8094 16.3941 12.346 16.7897 12.7416C17.1853 13.1371 17.7218 13.3594 18.2812 13.3594C18.8407 13.3594 19.3772 13.1371 19.7728 12.7416C20.1684 12.346 20.3906 11.8094 20.3906 11.25C20.3906 10.6906 20.1684 10.154 19.7728 9.75845C19.3772 9.36286 18.8407 9.14063 18.2812 9.14062Z" fill="url(#paint2_linear_118_336)"/>
<path d="M7.73438 11.25C7.73438 10.6906 7.95661 10.154 8.3522 9.75845C8.74778 9.36286 9.28431 9.14063 9.84375 9.14062C10.4032 9.14063 10.9397 9.36286 11.3353 9.75845C11.7309 10.154 11.9531 10.6906 11.9531 11.25C11.9531 11.8094 11.7309 12.346 11.3353 12.7416C10.9397 13.1371 10.4032 13.3594 9.84375 13.3594C9.28431 13.3594 8.74778 13.1371 8.3522 12.7416C7.95661 12.346 7.73438 11.8094 7.73438 11.25Z" fill="url(#paint3_linear_118_336)"/>
<defs>
<radialGradient id="paint0_radial_118_336" cx="0" cy="0" r="1" gradientUnits="userSpaceOnUse" gradientTransform="translate(-6.49125 19.1447) rotate(32.84) scale(40.1535 66.7575)">
<stop stop-color="#DAFF72"/>
<stop offset="0.535" stop-color="#D8FF6C"/>
<stop offset="1" stop-color="#BCFF00"/>
</radialGradient>
<linearGradient id="paint1_linear_118_336" x1="12.5916" y1="-1.76933e-08" x2="15.5587" y2="3.45656" gradientUnits="userSpaceOnUse">
<stop stop-color="#CDF855"/>
<stop offset="1" stop-color="#8BA938"/>
</linearGradient>
<linearGradient id="paint2_linear_118_336" x1="17.1731" y1="9.30375" x2="20.3709" y2="14.8219" gradientUnits="userSpaceOnUse">
<stop stop-color="#3D5200"/>
<stop offset="1" stop-color="#060900"/>
</linearGradient>
<linearGradient id="paint3_linear_118_336" x1="8.73563" y1="9.30375" x2="11.9334" y2="14.8219" gradientUnits="userSpaceOnUse">
<stop stop-color="#3D5200"/>
<stop offset="1" stop-color="#060900"/>
</linearGradient>
</defs>
</svg>
