<svg width="24" height="25" viewBox="0 0 24 25" fill="none" xmlns="http://www.w3.org/2000/svg">
<path d="M10.9399 23.15C10.4599 23.15 9.9899 23.03 9.5499 22.79C8.6699 22.3 8.1399 21.41 8.1399 20.41V15.11C8.1399 14.61 7.8099 13.86 7.4999 13.48L3.7599 9.51998C3.1299 8.88998 2.6499 7.80998 2.6499 6.99998V4.69998C2.6499 3.09998 3.8599 1.84998 5.3999 1.84998H18.5999C20.1199 1.84998 21.3499 3.07998 21.3499 4.59998V6.79998C21.3499 7.84998 20.7199 9.03998 20.1299 9.62998L15.7999 13.46C15.3799 13.81 15.0499 14.58 15.0499 15.2V19.5C15.0499 20.39 14.4899 21.42 13.7899 21.84L12.4099 22.73C11.9599 23.01 11.4499 23.15 10.9399 23.15ZM5.3999 3.34998C4.6999 3.34998 4.1499 3.93998 4.1499 4.69998V6.99998C4.1499 7.36998 4.4499 8.08998 4.8299 8.46998L8.6399 12.48C9.1499 13.11 9.6499 14.16 9.6499 15.1V20.4C9.6499 21.05 10.0999 21.37 10.2899 21.47C10.7099 21.7 11.2199 21.7 11.6099 21.46L12.9999 20.57C13.2799 20.4 13.5599 19.86 13.5599 19.5V15.2C13.5599 14.13 14.0799 12.95 14.8299 12.32L19.1099 8.52998C19.4499 8.18998 19.8599 7.37998 19.8599 6.78998V4.59998C19.8599 3.90998 19.2999 3.34998 18.6099 3.34998H5.3999Z" fill="#292D32"/>
<path d="M5.99992 11.25C5.85992 11.25 5.72992 11.21 5.59992 11.14C5.24992 10.92 5.13992 10.45 5.35992 10.1L10.2899 2.20002C10.5099 1.85002 10.9699 1.74002 11.3199 1.96002C11.6699 2.18002 11.7799 2.64002 11.5599 2.99002L6.62992 10.89C6.48992 11.12 6.24992 11.25 5.99992 11.25Z" fill="#292D32"/>
</svg>
