<svg width="334" height="334" viewBox="0 0 334 334" fill="none" xmlns="http://www.w3.org/2000/svg">
<circle cx="167" cy="167" r="157.5" fill="white" stroke="#BCFF00" stroke-width="19"/>
<path d="M228.457 116.76C215.684 119.076 203.155 123.99 193.349 132.465C184.966 139.707 181.222 149.034 179.416 159.845C179.416 159.845 203.76 140.042 229.581 135.597C229.118 135.819 203.521 149.042 180.081 172.85C176.353 176.632 171.155 181.656 171.155 181.656C171.155 181.656 170.932 152.934 169.009 132.242C165.309 92.4109 158.419 67.4435 158.176 66.8858C178.138 91.0732 184.65 128.056 184.65 128.056C191.547 116.813 195.459 105.424 193.544 92.318C191.308 76.9609 183.806 62.7273 174.024 50.6518C164.242 38.5763 152.244 28.4931 139.942 19C123.242 38.3136 117.53 66.4292 125.348 90.6731C130.789 107.53 142.645 122.115 157.717 131.458C157.34 141.275 156.541 160.96 155.551 179.239C153.116 175.97 150.613 172.886 148.049 169.98C127.133 146.294 103.106 134.679 102.672 134.481C127.101 138.68 150.122 157.412 150.122 157.412C148.418 147.167 144.872 138.361 136.944 131.511C127.673 123.497 115.818 118.849 103.735 116.655C91.6522 114.46 79.2653 114.606 67 115.261C67.0365 135.342 78.1698 155.064 95.3809 165.523C108.255 173.347 124.188 175.788 138.924 172.688C145.329 178.125 150.708 184.657 154.808 191.977C154.342 199.325 153.851 214.657 153.352 222.833C124.837 224.615 99.353 232.848 80.665 245.178C103.236 261.957 137.784 315.5 169.009 315.5C201.037 315.5 224.537 261.432 247.364 243.86C228.725 232.165 203.788 224.421 176.02 222.793C175.48 214.48 175.014 200.606 174.612 196.12C178.931 188.493 184.561 181.682 191.247 175.998C206.815 179.275 223.669 176.693 237.281 168.424C255.478 157.359 267.245 136.514 267.285 115.281C254.322 114.59 241.229 114.444 228.457 116.76Z" fill="#8BBD00"/>
<path d="M297.5 237.5C252.5 312 199 313 171 315.5C134.549 315.5 82.5 309.5 40 243.5C61.5 228.5 129.549 223 166 223C202.451 223 277 224.5 297.5 237.5Z" fill="#814D1F"/>
<path d="M162.501 223.555L163.225 223.474C164.57 222.923 166.062 222.85 167.454 223.267C168.066 223.536 168.739 223.635 169.403 223.555C169.85 223.949 169.617 224.452 169.617 224.918C169.617 233.306 169.617 241.685 169.617 250.037C169.617 250.575 169.698 251.113 169.734 251.643C172.299 253.894 174.641 256.379 176.984 258.819C179.585 261.17 181.972 263.727 184.332 266.319C184.88 267.098 185.336 267.938 185.691 268.822C186.067 269.307 185.888 269.881 185.897 270.41C185.959 279.704 185.789 288.998 185.977 298.292C186.03 298.743 185.991 299.201 185.864 299.637C185.736 300.073 185.522 300.479 185.235 300.831L185.28 300.759C185.219 301.044 185.078 301.307 184.874 301.515C184.67 301.723 184.41 301.869 184.127 301.934L183.447 302.131C180.765 302.939 179.612 302.32 178.128 299.35C177.493 298.686 177.744 297.861 177.744 297.099C177.744 288.271 177.744 279.441 177.744 270.607L173.712 266.561C171.514 264.651 169.467 262.572 167.588 260.345C167.347 260.093 167.096 259.851 166.846 259.6C166.426 259.644 166.018 259.773 165.648 259.977C165.493 260.026 165.352 260.112 165.237 260.228C165.122 260.343 165.036 260.485 164.986 260.641C163.49 262.519 161.823 264.255 160.007 265.826L156.985 269.01C156.576 269.745 156.389 270.584 156.449 271.424C156.449 275.389 156.592 279.363 156.36 283.328C158.148 284.593 159.998 285.822 161.178 287.76C161.775 288.233 162.171 288.916 162.287 289.671C162.921 291.716 163.359 293.77 162.635 295.888C162.099 296.641 162.233 297.736 161.375 298.319C160.025 300.687 157.683 301.907 155.555 303.405C153.669 303.917 151.782 304.302 149.842 303.674C149.05 303.621 148.276 303.414 147.563 303.064C145.65 301.539 143.397 300.373 142.378 297.942C141.198 296.668 141.341 295.008 141.046 293.456C140.932 292.75 141.032 292.025 141.332 291.375C141.729 289.66 142.495 288.053 143.576 286.666C144.657 285.279 146.027 284.146 147.59 283.346C147.925 282.917 148.099 282.384 148.081 281.839C147.759 277.174 148.001 272.5 147.947 267.826C148.183 266.649 148.773 265.572 149.637 264.74C150.808 263.35 152.39 262.363 153.418 260.838C153.495 260.563 153.639 260.313 153.837 260.109C154.036 259.905 154.282 259.755 154.554 259.672C156.342 257.241 158.666 255.402 160.677 253.231C161.349 252.699 161.804 251.94 161.956 251.095C162.027 243.192 161.956 235.289 162.001 227.385C161.858 226.063 162.001 224.726 162.421 223.465L162.501 223.555Z" fill="white"/>
<path d="M215.142 284.545C214.766 285.311 213.813 285.227 213.273 285.748C212.061 286.337 211.092 285.801 210.146 285.089L209.309 283.61C208.824 283.197 209.067 282.645 209.067 282.163C209.067 276.938 209.067 271.722 209.067 266.498C209.067 265.732 209.106 265.027 208.285 264.644C206.229 263.587 204.993 261.787 203.86 259.894C202.726 258.002 202.937 256.064 203.242 254.034V254.08C203.413 253.429 203.627 252.789 203.883 252.165C204.524 252.058 204.665 251.553 204.837 251.039C205.309 250.141 206.037 249.396 206.932 248.894C207.7 248.236 208.634 247.792 209.637 247.608C209.974 247.562 210.372 247.608 210.537 247.209C211.318 246.819 212.1 247.11 212.921 247.033C213.891 247.378 215.009 247.255 215.884 247.922L215.845 247.868C216.236 247.968 216.705 247.937 216.87 248.435C218.611 249.522 220.034 251.035 220.998 252.824C221.608 253.896 221.95 255.095 221.995 256.321C222.04 257.548 221.786 258.767 221.256 259.879C221.217 260.254 221.103 260.617 220.92 260.948C220.738 261.279 220.49 261.572 220.192 261.81C219.239 263.342 217.683 264.184 216.221 265.119C215.93 265.731 215.832 266.413 215.939 267.08C215.892 272.404 216.01 277.727 215.877 283.051C215.697 283.58 215.751 284.239 215.142 284.545Z" fill="white"/>
<path d="M263.858 224.455C264.234 223.689 265.187 223.773 265.727 223.252C266.939 222.663 267.908 223.199 268.854 223.911L269.691 225.39C270.176 225.803 269.933 226.355 269.933 226.837C269.933 232.062 269.933 237.278 269.933 242.502C269.933 243.268 269.894 243.973 270.715 244.356C272.771 245.413 274.007 247.213 275.14 249.106C276.274 250.998 276.063 252.936 275.758 254.966L275.758 254.92C275.587 255.571 275.373 256.211 275.117 256.835C274.476 256.942 274.335 257.447 274.163 257.961C273.691 258.859 272.963 259.604 272.068 260.106C271.3 260.764 270.366 261.208 269.363 261.392C269.026 261.438 268.628 261.392 268.463 261.791C267.682 262.181 266.9 261.89 266.079 261.967C265.109 261.622 263.991 261.745 263.116 261.078L263.155 261.132C262.764 261.032 262.295 261.063 262.13 260.565C260.389 259.478 258.966 257.965 258.002 256.176C257.392 255.104 257.05 253.905 257.005 252.679C256.96 251.452 257.214 250.233 257.744 249.121C257.783 248.746 257.897 248.383 258.08 248.052C258.262 247.721 258.51 247.428 258.808 247.19C259.761 245.658 261.317 244.816 262.779 243.881C263.07 243.269 263.168 242.587 263.061 241.92C263.108 236.596 262.99 231.273 263.123 225.949C263.303 225.42 263.249 224.761 263.858 224.455Z" fill="white"/>
<path d="M130.102 252.316L129.925 252.539C129.868 252.738 129.765 252.919 129.624 253.066C129.483 253.213 129.309 253.323 129.117 253.384C128.618 254.06 127.502 254.06 127.266 255.053C126.964 257.912 127.266 260.785 127.135 263.65C127.193 264.741 127.162 265.835 127.043 266.921C126.845 267.411 126.542 267.847 126.156 268.199C125.771 268.55 125.313 268.806 124.817 268.949C124.404 268.949 123.97 269.131 123.59 268.807C122.533 268.293 121.508 267.746 121.351 266.36C121.128 265.862 121.055 265.307 121.141 264.765C121.141 261.454 121.141 258.142 121.141 254.824C120.6 254.328 119.965 253.953 119.276 253.722C118.866 253.444 118.506 253.094 118.213 252.688C118.059 252.588 117.928 252.457 117.826 252.302C117.724 252.148 117.655 251.973 117.622 251.789C116.499 250.843 116.394 249.451 116.092 248.14C115.902 246.972 116.006 245.774 116.394 244.659V244.693C116.709 244.253 116.604 243.571 117.176 243.287C118.078 241.795 119.383 240.604 120.931 239.86C121.515 239.185 122.368 239.293 123.097 239.043C123.885 239.043 124.712 238.826 125.434 239.367C127.632 239.933 129.543 241.327 130.791 243.274C130.975 243.383 131.125 243.544 131.223 243.738C131.321 243.932 131.362 244.151 131.343 244.368C131.402 244.958 131.57 245.532 131.835 246.058C132.055 246.931 132.055 247.848 131.835 248.721C131.645 250.079 131.038 251.339 130.102 252.316Z" fill="white"/>
<path d="M67.3726 248.689L67.5941 248.399C67.6651 248.141 67.7943 247.906 67.9703 247.714C68.1464 247.523 68.3639 247.381 68.6035 247.301C69.2272 246.422 70.6222 246.422 70.9176 245.13C71.2951 241.414 70.9176 237.68 71.0818 233.955C71.0093 232.536 71.0477 231.114 71.1966 229.702C71.4438 229.066 71.8225 228.498 72.3044 228.042C72.7863 227.585 73.3587 227.252 73.9785 227.067C74.4955 227.067 75.0371 226.829 75.5131 227.251C76.8343 227.919 78.1144 228.63 78.3114 230.432C78.5896 231.079 78.681 231.801 78.574 232.505C78.574 236.81 78.574 241.115 78.574 245.429C79.2503 246.074 80.0438 246.561 80.9045 246.861C81.418 247.222 81.868 247.677 82.2339 248.206C82.4258 248.335 82.5905 248.506 82.7176 248.707C82.8447 248.908 82.9315 249.135 82.9725 249.374C84.3757 250.604 84.507 252.414 84.8845 254.119C85.1219 255.637 84.992 257.194 84.507 258.643L84.507 258.599C84.1132 259.17 84.2444 260.058 83.5305 260.427C82.4019 262.367 80.7712 263.915 78.8366 264.881C78.1062 265.76 77.0394 265.619 76.1286 265.944C75.1438 265.944 74.1098 266.226 73.2072 265.523C70.4603 264.787 68.071 262.975 66.5109 260.444C66.2809 260.303 66.0936 260.093 65.9714 259.841C65.8492 259.589 65.7972 259.304 65.8216 259.021C65.7469 258.254 65.5381 257.509 65.2062 256.825C64.9313 255.69 64.9313 254.498 65.2062 253.363C65.4437 251.597 66.2029 249.959 67.3726 248.689Z" fill="white"/>
</svg>
