<svg width="76" height="96" viewBox="0 0 76 96" fill="none" xmlns="http://www.w3.org/2000/svg">
<path d="M61.2662 37.0959C56.4196 37.9746 51.6653 39.8394 47.9442 43.0552C44.7634 45.8032 43.3424 49.3426 42.6572 53.4448C42.6572 53.4448 51.8947 45.9305 61.6927 44.2436C61.5171 44.328 51.8039 49.3457 42.9097 58.3796C41.4949 59.815 39.5227 61.7212 39.5227 61.7212C39.5227 61.7212 39.438 50.8224 38.7082 42.9708C37.3041 27.8564 34.6899 18.3823 34.5975 18.1707C42.1723 27.3488 44.6433 41.3821 44.6433 41.3821C47.2606 37.1158 48.7447 32.7944 48.0181 27.8212C47.1698 21.9938 44.3231 16.5927 40.6111 12.0105C36.8992 7.42838 32.3466 3.60224 27.6786 0C21.3417 7.3287 19.174 17.9974 22.1408 27.197C24.2053 33.5933 28.704 39.1278 34.4236 42.6733C34.2804 46.3982 33.9771 53.868 33.6014 60.8041C32.6777 59.5635 31.7277 58.3934 30.7547 57.2908C22.8182 48.3029 13.7008 43.8955 13.536 43.8204C22.8058 45.4137 31.5414 52.5216 31.5414 52.5216C30.8948 48.6341 29.5492 45.2926 26.5409 42.6932C23.0229 39.6523 18.5243 37.8887 13.9394 37.056C9.35451 36.2233 4.65416 36.2785 0 36.527C0.0138563 44.147 4.23847 51.6306 10.7694 55.5994C15.6545 58.5683 21.7004 59.4945 27.2922 58.3183C29.7226 60.3815 31.7637 62.8602 33.3197 65.6378C33.1426 68.4258 32.9563 74.2439 32.767 77.3462C21.9468 78.0225 12.2766 81.1463 5.18532 85.8251C13.75 92.1923 24.6349 96.0031 36.4835 96.0031C48.637 96.0031 59.7789 91.9929 68.4406 85.3252C61.3678 80.8871 51.9055 77.9489 41.3686 77.3309C41.1638 74.1765 40.9868 68.9119 40.8344 67.2097C42.473 64.3158 44.6096 61.7313 47.1467 59.5743C53.054 60.8179 59.4495 59.838 64.6148 56.7004C71.5198 52.5017 75.9846 44.5917 76 36.5346C71.081 36.2724 66.1128 36.2172 61.2662 37.0959Z" fill="#8BBD00"/>
</svg>
