<svg width="24" height="24" viewBox="0 0 24 24" fill="none" xmlns="http://www.w3.org/2000/svg">
<g clip-path="url(#clip0_119_483)">
<path d="M5.125 14.75C2.84766 14.75 1 12.9023 1 10.625C1 8.79883 2.18594 7.24766 3.83164 6.70625C3.78008 6.41836 3.75 6.11758 3.75 5.8125C3.75 3.15273 5.90273 1 8.5625 1C10.4145 1 12.0215 2.04414 12.825 3.57812C13.4566 2.84336 14.3934 2.375 15.4375 2.375C17.3367 2.375 18.875 3.91328 18.875 5.8125C18.875 6.04883 18.8492 6.27656 18.8062 6.5H18.875C21.1523 6.5 23 8.34766 23 10.625C23 12.9023 21.1523 14.75 18.875 14.75H5.125ZM4.83281 16.9844C4.88867 16.877 5.00039 16.8125 5.125 16.8125C5.24961 16.8125 5.35703 16.877 5.41719 16.9844L6.92539 19.7602C7.10156 20.0824 7.1918 20.4391 7.1918 20.8043V20.9332C7.1918 22.0719 6.26797 22.9957 5.1293 22.9957C3.99062 22.9957 3.0668 22.0719 3.0668 20.9332V20.8043C3.0668 20.4391 3.15703 20.0781 3.3332 19.7602L4.83281 16.9844ZM11.7078 16.9844C11.7637 16.877 11.8754 16.8125 12 16.8125C12.1246 16.8125 12.232 16.877 12.2922 16.9844L13.8004 19.7602C13.9766 20.0824 14.0668 20.4391 14.0668 20.8043V20.9332C14.0668 22.0719 13.143 22.9957 12.0043 22.9957C10.8656 22.9957 9.9418 22.0719 9.9418 20.9332V20.8043C9.9418 20.4391 10.032 20.0781 10.2082 19.7602L11.7078 16.9844ZM17.0746 19.7602L18.5828 16.9844C18.6387 16.877 18.7504 16.8125 18.875 16.8125C18.9996 16.8125 19.107 16.877 19.1672 16.9844L20.6754 19.7602C20.8516 20.0824 20.9418 20.4391 20.9418 20.8043V20.9332C20.9418 22.0719 20.018 22.9957 18.8793 22.9957C17.7406 22.9957 16.8168 22.0719 16.8168 20.9332V20.8043C16.8168 20.4391 16.907 20.0781 17.0832 19.7602H17.0746Z" fill="#709800"/>
</g>
<defs>
<clipPath id="clip0_119_483">
<rect width="22" height="22" fill="white" transform="translate(1 1)"/>
</clipPath>
</defs>
</svg>
