<svg width="20" height="20" viewBox="0 0 20 20" fill="none" xmlns="http://www.w3.org/2000/svg">
<path d="M12.5 18H10.5V19.25C10.5 19.4667 10.429 19.646 10.287 19.788C10.145 19.93 9.966 20.0007 9.75 20C9.534 19.9993 9.355 19.9283 9.213 19.787C9.071 19.6457 9 19.4667 9 19.25V14.75C9 14.5333 9.071 14.3543 9.213 14.213C9.355 14.0717 9.534 14.0007 9.75 14H12.5C12.9 14 13.25 14.15 13.55 14.45C13.85 14.75 14 15.1 14 15.5V16.5C14 16.9 13.85 17.25 13.55 17.55C13.25 17.85 12.9 18 12.5 18ZM16.5 17.5V19.25C16.5 19.4667 16.429 19.646 16.287 19.788C16.145 19.93 15.966 20.0007 15.75 20C15.534 19.9993 15.355 19.9283 15.213 19.787C15.071 19.6457 15 19.4667 15 19.25V14.75C15 14.5333 15.071 14.3543 15.213 14.213C15.355 14.0717 15.534 14.0007 15.75 14C15.966 13.9993 16.1453 14.0703 16.288 14.213C16.4307 14.3557 16.5013 14.5347 16.5 14.75V16H18.5V14.75C18.5 14.5333 18.571 14.3543 18.713 14.213C18.855 14.0717 19.034 14.0007 19.25 14C19.466 13.9993 19.6453 14.0703 19.788 14.213C19.9307 14.3557 20.0013 14.5347 20 14.75V19.25C20 19.4667 19.929 19.646 19.787 19.788C19.645 19.93 19.466 20.0007 19.25 20C19.034 19.9993 18.855 19.9283 18.713 19.787C18.571 19.6457 18.5 19.4667 18.5 19.25V17.5H16.5ZM10.5 16.5H12.5V15.5H10.5V16.5ZM8 0.349991C8.13333 0.349991 8.25433 0.370991 8.363 0.412991C8.47167 0.454991 8.57567 0.517325 8.675 0.599991C10.975 2.66666 12.7083 4.52932 13.875 6.18799C15.0417 7.84666 15.725 9.41732 15.925 10.9C15.9583 11.1833 15.875 11.4377 15.675 11.663C15.475 11.8883 15.2167 12.0007 14.9 12H9C8.45 12 7.97933 12.196 7.588 12.588C7.19667 12.98 7.00067 13.4507 7 14V18.7C7 18.9833 6.904 19.225 6.712 19.425C6.52 19.625 6.28267 19.725 6 19.725C4.03333 19.725 2.54167 18.9417 1.525 17.375C0.508333 15.8083 0 13.95 0 11.8C0 10.2333 0.621 8.50432 1.863 6.61299C3.105 4.72166 4.92567 2.71732 7.325 0.599991C7.425 0.516658 7.52933 0.453991 7.638 0.411991C7.74667 0.369991 7.86733 0.349325 8 0.349991Z" fill="#709800"/>
</svg>
